<svg xmlns="http://www.w3.org/2000/svg" viewBox="0 0 128 128" role="img" aria-label="FrameMind">
  <defs>
    <linearGradient id="fm" x1="20" y1="22" x2="108" y2="108" gradientUnits="userSpaceOnUse">
      <stop offset="0" stop-color="#c026ff"/>
      <stop offset="0.36" stop-color="#7c1cff"/>
      <stop offset="0.64" stop-color="#552cff"/>
      <stop offset="1" stop-color="#62ff00"/>
    </linearGradient>
    <linearGradient id="fmDark" x1="10" y1="14" x2="116" y2="120" gradientUnits="userSpaceOnUse">
      <stop offset="0" stop-color="#060b18"/>
      <stop offset="1" stop-color="#10151c"/>
    </linearGradient>
    <linearGradient id="greenStroke" x1="84" y1="58" x2="120" y2="38" gradientUnits="userSpaceOnUse">
      <stop offset="0" stop-color="#34d94b"/>
      <stop offset="1" stop-color="#62ff00"/>
    </linearGradient>
    <filter id="glow" x="-30%" y="-30%" width="160%" height="160%">
      <feGaussianBlur stdDeviation="3.2" result="blur"/>
      <feMerge>
        <feMergeNode in="blur"/>
        <feMergeNode in="SourceGraphic"/>
      </feMerge>
    </filter>
  </defs>
  <rect width="128" height="128" rx="25" fill="url(#fmDark)"/>
  <path d="M26 27h45L59 39H40v16h28L55 68H40v33H26z" fill="url(#fm)" filter="url(#glow)"/>
  <path d="M50 89 74 63l13 16 24-31v53H96V76L75 103 62 86l-12 15z" fill="url(#fm)" filter="url(#glow)"/>
  <path d="M73 44a24 24 0 0 1 22 15l-17 8-11-21c2-.9 4-1.5 6-2Zm-9 6 10 21-23-1a24 24 0 0 1 13-20Zm34 17a24 24 0 0 1-11 24l-8-18 19-6Zm-19 28a24 24 0 0 1-24-13l21 1 3 12Z" fill="url(#fm)" opacity=".96"/>
  <path d="M84 58 104 38h15" fill="none" stroke="url(#greenStroke)" stroke-width="8" stroke-linecap="square" stroke-linejoin="round"/>
  <circle cx="118" cy="38" r="9" fill="none" stroke="#62ff00" stroke-width="7"/>
</svg>
